<svg width="256" height="256" viewBox="0 0 256 256" fill="none" xmlns="http://www.w3.org/2000/svg">
<rect width="256" height="256" rx="32" fill="#24FF6F"/>
<path d="M148.28 166.96C150.733 166.96 152.92 166.427 154.84 165.36L154.04 183.44C149.027 187.6 143.32 189.68 136.92 189.68C122.413 189.68 115.16 183.6 115.16 171.44C115.16 169.307 115.373 167.013 115.8 164.56L119.32 144.88C119.64 142.96 119.8 141.04 119.8 139.12C119.8 134 117.08 131.44 111.64 131.44C106.307 131.44 102.147 133.253 99.16 136.88L90.2 187.44H63L84.44 66H111.64L102.52 117.68C108.387 111.387 115.747 108.24 124.6 108.24C135.373 108.24 142.36 110.64 145.56 115.44C147.8 118.64 148.92 122.213 148.92 126.16C148.92 130.107 148.6 133.733 147.96 137.04L143.64 160.88C143.533 161.52 143.48 162.107 143.48 162.64C143.48 165.52 145.08 166.96 148.28 166.96Z" fill="black"/>
<path d="M161.582 178.16C161.582 171.333 163.076 166.373 166.062 163.28C169.049 160.08 173.796 158.48 180.302 158.48C189.262 158.48 193.743 162.427 193.743 170.32C193.743 177.04 192.196 181.947 189.103 185.04C186.116 188.133 181.369 189.68 174.863 189.68C166.009 189.68 161.582 185.84 161.582 178.16Z" fill="black"/>
</svg>
