<?xml version="1.0" encoding="UTF-8"?><svg id="b" xmlns="http://www.w3.org/2000/svg" width="301" height="301" viewBox="0 0 301 301"><g id="c"><path d="M150.5,0h0C67.38,0,0,67.38,0,150.5H0c0,19.15,3.59,37.47,10.11,54.32l59.19-59.19c4.55-4.55,10.56-6.75,16.53-6.62,5.97-.13,11.97,2.07,16.53,6.62l22.06,22.06,69.95-69.95c8.86-8.86,23.21-8.86,32.07,0h0c8.86,8.86,8.86,23.21,0,32.07l-84,84c-.87,.87-1.81,1.63-2.77,2.33-8.89,8.29-22.81,8.13-31.48-.54l-22.36-22.36-52.14,52.14c27.6,33.93,69.67,55.62,116.82,55.62h0c83.12,0,150.5-67.38,150.5-150.5h0C301,67.38,233.62,0,150.5,0Z" fill="currentColor"/></g></svg>